<?xml version="1.0" standalone="no"?>
<!DOCTYPE svg PUBLIC "-//W3C//DTD SVG 20010904//EN"
 "http://www.w3.org/TR/2001/REC-SVG-20010904/DTD/svg10.dtd">
<svg version="1.0" xmlns="http://www.w3.org/2000/svg"
 width="260.000000pt" height="260.000000pt" viewBox="0 0 260.000000 260.000000"
 preserveAspectRatio="xMidYMid meet">
<metadata>
Created by potrace 1.14, written by Peter Selinger 2001-2017
</metadata>
<g transform="translate(0.000000,260.000000) scale(0.100000,-0.100000)"
fill="#000000" stroke="none">
<path d="M2380 2380 c-8 -5 -10 -10 -5 -10 6 0 17 5 25 10 8 5 11 10 5 10 -5
0 -17 -5 -25 -10z"/>
<path d="M2455 2380 c3 -5 8 -10 11 -10 2 0 4 5 4 10 0 6 -5 10 -11 10 -5 0
-7 -4 -4 -10z"/>
<path d="M2421 2371 c-8 -6 -10 -14 -5 -22 6 -12 5 -12 -9 0 -20 16 -23 2 -4
-19 10 -12 9 -12 -5 -1 -10 7 -18 10 -18 6 0 -4 -7 -2 -15 5 -8 7 -15 8 -15 3
0 -6 10 -14 22 -20 19 -8 20 -10 4 -16 -12 -5 -15 -3 -11 6 4 6 -1 3 -9 -7 -9
-11 -14 -28 -11 -37 6 -17 -9 -33 -30 -34 -5 -1 -9 -7 -7 -14 1 -7 -2 -10 -7
-7 -5 4 -16 -1 -25 -9 -9 -9 -17 -11 -21 -5 -3 5 -2 10 2 10 5 0 17 6 27 13
17 13 18 14 2 20 -9 4 -15 3 -12 -2 6 -9 -23 -26 -38 -22 -5 1 -3 -5 4 -14 10
-12 10 -19 2 -27 -9 -9 -12 -9 -12 0 0 7 -5 12 -11 12 -8 0 -7 -5 1 -15 9 -11
16 -13 24 -5 5 5 15 10 20 10 6 0 3 -5 -7 -11 -15 -9 -16 -13 -5 -27 10 -11 5
-11 -17 4 -30 18 -30 18 -15 -1 14 -17 13 -18 -4 -12 -14 6 -17 4 -12 -10 4
-10 4 -14 0 -11 -3 4 -13 0 -21 -8 -14 -13 -18 -13 -35 2 -17 17 -18 17 -12 1
5 -13 2 -16 -12 -11 -14 4 -16 3 -5 -4 10 -7 8 -13 -10 -27 -13 -10 -17 -15
-9 -12 10 3 20 -4 26 -18 10 -21 9 -23 -13 -19 -14 3 -22 1 -19 -5 4 -5 1 -13
-5 -17 -7 -4 -9 -3 -6 3 4 6 0 14 -9 17 -12 5 -14 1 -9 -16 6 -18 5 -19 -8 -7
-8 8 -12 18 -9 23 3 5 0 6 -7 2 -6 -4 -9 -11 -6 -16 3 -4 -2 -11 -11 -14 -9
-4 -14 -9 -11 -13 4 -3 13 0 22 7 18 15 20 4 2 -13 -17 -16 -37 -19 -37 -6 0
5 -5 7 -11 3 -8 -4 -7 -9 2 -15 7 -4 17 -5 21 -3 4 3 8 0 8 -5 0 -6 -9 -11
-20 -11 -11 0 -20 -5 -20 -11 0 -5 -16 -17 -35 -25 -36 -15 -44 -28 -22 -38 6
-3 0 -4 -15 -3 -24 4 -26 2 -16 -16 8 -16 8 -19 -4 -14 -8 3 -21 1 -29 -5 -11
-8 -10 -9 4 -4 11 4 17 0 18 -12 0 -10 3 -12 6 -4 2 6 9 12 15 12 6 0 5 -6 -2
-15 -10 -12 -16 -13 -28 -3 -13 11 -14 9 -8 -12 7 -24 6 -24 -8 -6 -10 12 -16
15 -16 7 0 -8 -8 -11 -20 -8 -17 4 -18 2 -9 -15 9 -16 8 -19 -2 -13 -8 6 -11
4 -7 -7 4 -8 0 -15 -7 -15 -10 0 -11 5 -4 18 6 11 5 20 -1 24 -5 3 -10 5 -11
3 0 -2 -3 -16 -5 -33 -3 -16 -12 -37 -20 -46 -8 -9 -12 -25 -8 -35 5 -17 4
-17 -8 -4 -7 8 -19 16 -27 18 -12 3 -12 1 0 -14 13 -16 12 -16 -9 -5 -19 10
-23 9 -29 -5 -3 -9 0 -20 8 -25 10 -7 4 -8 -19 -5 -18 2 -30 0 -26 -5 3 -5 9
-7 14 -4 4 3 13 -1 18 -8 9 -10 5 -13 -18 -11 -17 1 -27 -2 -24 -7 3 -5 10 -7
15 -4 5 4 7 -4 5 -17 -2 -13 -9 -21 -17 -19 -31 8 -59 9 -54 1 3 -5 12 -7 19
-4 18 7 41 -22 25 -32 -7 -4 -9 -3 -5 4 3 6 1 14 -5 18 -7 4 -23 -7 -39 -25
-16 -17 -34 -30 -41 -29 -7 2 -14 -7 -15 -18 -2 -27 -12 -44 -26 -44 -7 0 -6
5 1 14 9 11 9 16 -1 22 -7 4 -10 4 -6 -1 4 -4 3 -14 -3 -22 -10 -11 -15 -11
-27 -1 -13 10 -14 10 -8 1 4 -7 2 -13 -4 -13 -7 0 -7 -7 1 -22 9 -19 9 -21 -2
-10 -24 23 -33 12 -10 -12 18 -19 19 -24 7 -22 -9 1 -23 11 -32 22 -15 18 -15
18 -5 -3 14 -29 14 -46 -1 -37 -7 4 -8 3 -4 -4 4 -7 1 -12 -9 -12 -9 0 -13 5
-9 11 4 7 -3 6 -17 -2 -25 -14 -30 -15 -51 -18 -9 -1 -9 -4 2 -11 9 -5 19 -5
27 2 10 8 13 6 10 -10 -2 -12 -7 -25 -12 -29 -4 -5 -5 -3 -1 4 4 8 -1 11 -14
10 -25 -2 -26 -13 -2 -22 16 -6 16 -7 -1 -16 -13 -8 -15 -14 -8 -23 8 -9 7
-13 -4 -13 -8 0 -12 4 -9 9 3 4 0 8 -7 8 -6 0 -9 -8 -6 -19 3 -14 1 -18 -9
-14 -10 4 -12 0 -8 -13 5 -16 4 -16 -5 -4 -6 9 -7 18 -1 24 18 18 10 26 -9 9
-11 -9 -17 -21 -14 -27 4 -6 0 -5 -9 1 -8 7 -17 11 -20 8 -3 -3 -11 2 -19 11
-11 14 -10 18 6 31 19 15 19 15 -3 8 -21 -6 -23 -5 -13 13 18 33 12 39 -11 12
-13 -15 -19 -18 -15 -8 3 10 2 20 -4 23 -5 4 -7 10 -4 15 3 4 -2 11 -11 14 -8
3 -13 10 -9 16 3 5 -7 5 -25 -2 -17 -5 -34 -8 -37 -4 -4 3 1 6 10 6 9 0 17 5
17 11 0 7 -9 9 -21 6 -16 -4 -18 -3 -8 9 6 7 15 11 20 8 5 -3 6 3 2 12 -4 11
-8 13 -11 6 -6 -19 -18 -14 -19 8 -1 11 2 18 7 15 6 -3 7 1 3 10 -4 13 -8 14
-14 4 -4 -7 -15 -14 -23 -15 -9 -1 -14 2 -11 7 8 12 -14 51 -24 44 -5 -3 -11
2 -15 10 -3 8 -10 15 -16 15 -6 0 -4 -7 4 -16 9 -8 16 -20 16 -26 0 -6 -9 -1
-20 12 -15 18 -17 26 -9 37 10 11 8 12 -7 6 -17 -6 -18 -5 -4 12 14 17 13 18
-2 12 -12 -4 -23 3 -37 22 -11 16 -18 31 -15 34 3 3 -1 4 -10 3 -8 -1 -19 -6
-23 -10 -4 -4 -3 -6 2 -4 6 1 11 -1 12 -6 1 -5 7 -13 15 -17 7 -5 8 -9 2 -9
-6 0 -21 12 -35 27 -13 14 -18 23 -11 19 7 -4 12 -1 12 9 0 9 -4 13 -10 10 -5
-3 -10 -1 -10 5 0 6 -6 8 -12 5 -7 -4 -4 1 6 9 15 12 16 16 5 16 -8 0 -21 -6
-29 -12 -8 -7 -4 -1 9 14 14 16 21 31 18 35 -4 3 -7 1 -7 -5 0 -7 -5 -12 -11
-12 -6 0 -9 6 -6 14 6 15 -9 16 -30 3 -8 -5 -11 -1 -8 15 4 22 4 22 -10 4 -8
-11 -16 -17 -16 -13 -5 25 -4 33 6 40 6 5 4 7 -5 4 -8 -2 -14 -10 -12 -16 3
-17 -15 -13 -22 5 -3 8 -2 12 4 9 6 -3 10 -1 10 4 0 6 -4 11 -10 11 -5 0 -10
5 -10 11 0 5 5 7 12 3 7 -5 8 -3 4 5 -5 7 -15 10 -23 6 -12 -4 -13 -2 -5 8 7
8 7 18 2 27 -8 13 -11 13 -22 1 -9 -10 -10 -12 -1 -7 9 5 11 2 7 -8 -3 -8 -13
-17 -21 -20 -12 -5 -13 -4 -5 7 7 8 9 17 5 20 -9 10 -25 9 -19 -1 3 -5 -1 -9
-9 -9 -8 0 -15 4 -15 8 0 10 30 20 41 13 5 -3 9 0 9 5 0 15 -43 14 -60 -1 -12
-11 -12 -10 -1 5 8 9 11 21 7 24 -4 4 -11 1 -15 -6 -6 -8 -11 -9 -15 -3 -3 6
3 13 14 17 21 7 28 35 9 35 -5 0 -7 -4 -4 -10 3 -5 0 -10 -8 -10 -7 0 -14 7
-15 15 -1 8 -3 22 -4 30 -2 18 -20 19 -36 3 -17 -17 -34 8 -26 37 4 16 3 17
-5 5 -8 -11 -11 -12 -11 -2 0 7 -4 11 -9 8 -11 -7 -36 22 -27 31 3 3 6 0 7 -8
0 -9 4 -6 10 6 9 19 9 18 5 -3 -2 -12 0 -20 5 -16 14 9 10 30 -9 47 -17 15
-20 15 -43 0 l-24 -16 23 25 23 26 -31 -4 c-18 -2 -29 0 -25 6 3 6 -1 7 -10 4
-12 -5 -14 -2 -8 12 6 16 5 17 -9 6 -12 -9 -18 -10 -23 -2 -4 6 -4 14 -1 17 3
4 6 0 6 -7 0 -11 3 -11 12 -2 10 10 10 15 -2 22 -8 5 -18 6 -22 4 -5 -3 -8 -2
-7 3 4 22 -2 34 -14 27 -6 -4 -9 -4 -5 1 11 11 -12 36 -25 28 -6 -4 -8 0 -4
11 4 10 3 15 -3 11 -6 -4 -10 -12 -9 -18 3 -28 -2 -36 -18 -30 -16 6 -16 4 1
-15 11 -12 14 -22 8 -22 -7 0 -12 4 -12 9 0 5 -7 12 -16 15 -9 3 -12 2 -9 -5
4 -5 2 -16 -5 -24 -8 -10 -8 -15 1 -20 8 -6 7 -10 -2 -17 -11 -8 -11 -9 1 -5
8 2 14 13 14 25 -1 12 2 19 6 17 9 -6 8 -25 -3 -42 -4 -6 -3 -14 2 -17 6 -4 4
-17 -4 -33 -9 -16 -11 -31 -6 -36 13 -13 2 -38 -13 -30 -6 4 -5 -1 3 -11 8 -9
20 -15 28 -12 10 4 11 1 3 -14 -7 -13 -7 -21 0 -25 13 -8 3 -25 -13 -25 -7 0
-6 4 3 10 9 6 10 10 3 10 -17 0 -25 -17 -13 -25 8 -5 6 -11 -5 -18 -13 -10
-12 -12 9 -13 18 -1 23 2 19 15 -4 13 -3 14 5 1 13 -18 6 -30 -18 -30 -13 0
-18 -5 -14 -15 5 -13 9 -13 23 -3 10 8 9 4 -3 -10 -21 -24 -31 -56 -15 -46 5
3 9 1 9 -5 0 -5 -5 -13 -10 -16 -7 -5 -8 -11 -1 -19 6 -7 6 -18 1 -25 -10 -18
-1 -43 12 -35 6 4 6 9 -2 14 -8 5 -8 10 -2 14 23 14 19 -26 -5 -50 -21 -21
-22 -25 -7 -22 11 2 22 8 26 13 5 6 8 5 8 -2 0 -7 -12 -19 -27 -28 l-28 -15
27 4 c15 3 30 0 34 -5 3 -5 2 -9 -3 -8 -21 4 -43 -2 -43 -11 0 -5 8 -6 18 -3
15 6 15 5 3 -10 -9 -11 -10 -17 -2 -17 6 0 11 -5 11 -11 0 -6 -9 -8 -22 -3
-19 6 -19 4 5 -20 33 -33 34 -40 4 -25 -12 6 -19 8 -15 4 4 -5 3 -14 -4 -22
-9 -11 -7 -12 7 -7 25 10 37 -16 20 -43 -8 -12 -11 -24 -6 -28 5 -3 12 1 14 7
4 9 6 10 6 1 1 -6 -3 -15 -9 -18 -5 -3 -10 -11 -10 -16 0 -6 4 -8 9 -4 5 3 13
1 16 -5 4 -6 3 -9 -2 -8 -4 2 -10 -1 -11 -7 -2 -5 -8 -15 -13 -22 -7 -7 -5
-13 3 -16 7 -2 10 -8 6 -12 -4 -4 -14 -2 -23 5 -24 20 -17 1 10 -26 29 -29 32
-38 7 -25 -18 9 -19 5 -13 -52 1 -5 6 -5 12 -1 8 5 8 9 -1 14 -8 5 -8 10 -2
14 23 14 19 -26 -5 -50 -21 -21 -22 -25 -7 -22 11 2 22 8 26 13 5 6 8 5 8 -2
0 -7 -12 -19 -27 -28 l-28 -15 27 4 c15 3 30 0 34 -5 3 -5 2 -9 -3 -8 -21 4
-43 -2 -43 -11 0 -5 8 -7 18 -4 12 4 11 1 -5 -13 l-23 -18 25 -1 c14 -1 23 2
20 6 -3 5 -1 11 4 14 5 4 8 -2 7 -11 -2 -10 -12 -19 -24 -21 -14 -2 -19 -8
-15 -18 4 -12 8 -12 22 -2 10 8 9 4 -3 -10 -21 -24 -31 -56 -15 -46 5 3 9 1 9
-5 0 -5 -5 -13 -10 -16 -8 -5 -7 -12 2 -23 11 -13 11 -15 -3 -10 -9 3 -16 1
-16 -5 0 -7 11 -13 23 -13 17 -1 21 2 17 15 -4 13 -3 14 5 1 13 -18 6 -30 -18
-30 -13 0 -18 -5 -14 -15 5 -13 9 -13 23 -3 10 8 9 4 -3 -10 -21 -24 -31 -56
-15 -46 5 3 9 1 9 -5 0 -5 -5 -13 -10 -16 -7 -5 -8 -11 -1 -19 6 -7 6 -18 1
-25 -10 -18 -1 -43 12 -35 6 4 6 9 -2 14 -8 5 -8 10 -2 14 23 14 19 -26 -5
-50 -21 -21 -22 -25 -7 -22 11 2 22 8 26 13 5 6 8 5 8 -2 0 -7 -12 -19 -27
-28 l-28 -15 27 4 c15 3 30 0 34 -5 3 -5 2 -9 -3 -8 -21 4 -43 -2 -43 -11 0
-5 8 -6 18 -3 15 6 15 5 3 -10 -9 -11 -10 -17 -2 -17 6 0 11 -5 11 -11 0 -6
-9 -8 -22 -3 -19 6 -19 4 5 -20 33 -33 34 -40 4 -25 -12 6 -19 8 -15 4 4 -5 3
-13 -2 -20 -7 -8 -5 -12 5 -12 8 0 12 5 9 11 -3 6 2 2 10 -8 9 -11 16 -25 15
-30 0 -6 -3 -5 -6 2 -7 17 -30 15 -37 -4 -10 -25 -7 -29 6 -12 12 16 14 16 28
0 13 -14 12 -15 -3 -9 -9 3 -17 3 -18 -1 0 -4 -2 -15 -4 -25 -2 -9 1 -15 6
-11 5 3 9 0 9 -6 0 -6 5 -8 12 -4 7 4 8 3 4 -5 -4 -6 -12 -9 -17 -6 -5 4 -9
-1 -9 -10 0 -9 4 -13 10 -10 6 3 7 -1 4 -9 -3 -9 -11 -13 -18 -9 -8 4 -8 2 1
-7 6 -7 9 -19 6 -28 -4 -9 -1 -13 6 -11 7 3 12 8 11 13 -2 10 20 26 35 26 6 0
4 -4 -4 -9 -7 -5 -10 -14 -6 -21 5 -8 12 -7 25 5 17 16 19 15 30 -5 8 -16 15
-18 24 -11 9 7 16 7 23 0 8 -8 13 -7 18 1 5 8 15 4 33 -12 15 -13 21 -16 14
-7 -16 22 -3 33 18 14 14 -13 17 -13 17 0 0 8 -4 12 -9 9 -4 -3 -8 -1 -8 5 0
5 9 9 20 8 11 -1 19 -6 16 -12 -2 -6 18 -10 55 -10 46 0 61 4 73 20 15 20 15
20 12 0 -3 -17 1 -21 29 -20 21 0 31 4 28 12 -8 19 -33 24 -33 6 0 -9 -3 -14
-6 -10 -4 3 -4 13 -1 22 5 12 11 13 32 3 23 -10 29 -20 26 -41 -2 -14 17 -7
23 9 4 10 2 13 -7 8 -6 -4 -9 -4 -5 1 4 4 2 15 -5 23 -11 13 -9 14 10 1 13 -8
23 -17 23 -21 0 -5 4 -8 10 -8 5 0 7 8 4 18 -4 10 -2 13 3 7 4 -6 15 -10 23
-10 8 0 20 -6 26 -14 8 -11 13 -11 18 -2 6 9 11 9 21 1 10 -8 15 -8 20 0 5 8
16 4 33 -12 15 -13 21 -16 14 -7 -20 26 0 31 27 7 15 -14 20 -15 12 -5 -13 16
-12 17 17 12 24 -4 34 -1 42 15 6 11 16 20 23 20 7 0 8 -3 2 -8 -26 -19 -9
-27 55 -27 57 0 72 3 84 20 15 20 15 20 11 -3 -2 -12 0 -20 6 -17 5 4 9 12 9
20 0 19 23 25 44 9 14 -10 16 -17 8 -27 -9 -10 -6 -13 11 -14 12 0 17 1 10 4
-7 2 -9 11 -6 19 4 12 7 12 18 -2 9 -13 14 -14 19 -5 6 9 11 9 21 1 10 -8 15
-8 20 0 5 8 16 4 33 -12 15 -13 21 -16 14 -7 -16 22 -3 33 18 14 14 -13 17
-13 17 0 0 8 -4 12 -9 9 -4 -3 -8 -1 -8 5 0 5 9 9 20 8 11 -1 19 -6 16 -12 -2
-6 18 -10 55 -10 46 0 61 4 73 20 15 20 15 20 12 0 -3 -17 1 -21 29 -20 21 0
31 4 28 12 -8 19 -33 24 -33 6 0 -9 -3 -14 -6 -10 -4 3 -4 13 -1 22 5 12 11
13 32 3 23 -10 29 -20 26 -40 -2 -15 17 -8 23 8 4 10 2 13 -7 8 -6 -4 -9 -4
-5 1 4 4 2 15 -5 23 -11 13 -9 14 11 1 12 -8 22 -17 22 -21 0 -5 4 -8 10 -8 5
0 7 8 4 17 -4 11 -2 14 3 8 4 -6 15 -10 23 -10 8 0 20 -6 26 -14 8 -11 13 -11
18 -2 6 9 11 9 21 1 10 -8 15 -8 20 0 5 8 16 4 33 -12 15 -13 21 -16 14 -7
-20 26 0 31 27 7 15 -14 20 -15 12 -5 -13 16 -12 17 17 12 24 -4 34 -1 42 15
6 11 16 20 23 20 7 0 8 -3 2 -8 -26 -19 -9 -27 55 -27 57 0 72 3 84 20 15 20
15 20 11 -3 -2 -12 0 -20 6 -17 5 4 9 12 9 20 0 19 23 25 44 9 14 -10 16 -17
8 -27 -9 -10 -6 -13 11 -14 12 0 17 1 10 4 -7 2 -9 11 -6 19 4 12 7 12 18 -2
9 -13 14 -14 19 -5 6 9 11 9 21 1 10 -8 15 -8 20 0 5 8 16 4 33 -12 15 -13 21
-16 14 -7 -16 22 -3 33 18 14 14 -13 17 -13 17 0 0 8 -4 12 -9 9 -4 -3 -8 0
-8 5 0 7 14 9 35 6 31 -4 47 6 28 18 -5 2 -2 2 5 1 18 -5 53 33 46 50 -3 8 -2
21 2 28 5 7 9 22 11 33 1 11 -1 14 -3 7 -3 -6 -11 -9 -17 -5 -8 4 -8 1 1 -9
10 -13 9 -18 -4 -29 -15 -12 -16 -11 -10 8 5 15 2 24 -10 31 -15 8 -15 9 1 15
9 4 13 11 10 17 -3 5 0 7 8 4 8 -3 18 0 23 7 4 8 3 10 -4 5 -7 -4 -12 -2 -12
3 0 6 5 11 12 11 6 0 9 3 5 6 -3 3 -12 2 -19 -2 -18 -11 -38 -14 -38 -5 0 4
14 14 31 22 28 13 29 16 15 28 -14 12 -16 12 -10 -3 4 -10 1 -16 -7 -16 -7 0
-9 3 -6 6 3 4 2 15 -3 25 -8 15 -7 17 9 14 15 -3 18 0 14 12 -5 12 -3 14 8 8
9 -5 7 -1 -3 10 -16 17 -16 19 0 32 9 8 11 12 5 8 -7 -3 -13 -2 -13 4 0 5 6
12 13 15 6 3 -4 3 -23 1 l-35 -5 33 18 c30 16 32 20 18 32 -14 11 -16 10 -10
-4 4 -10 1 -16 -7 -16 -7 0 -9 3 -6 6 3 4 2 15 -3 25 -8 15 -7 17 9 14 15 -3
18 0 14 12 -5 12 -3 14 8 8 9 -5 7 -1 -3 10 -16 17 -16 19 0 32 9 8 11 12 5 8
-7 -3 -13 -2 -13 4 0 5 6 12 13 15 6 3 -4 3 -23 1 l-35 -5 33 18 c30 16 32 20
18 32 -14 11 -16 10 -10 -4 4 -10 1 -16 -7 -16 -7 0 -9 3 -6 6 3 4 2 15 -3 25
-8 15 -7 17 9 14 15 -3 18 0 14 12 -5 12 -3 14 8 8 9 -5 7 -1 -3 10 -16 17
-16 19 0 32 9 8 11 12 5 8 -7 -3 -13 -2 -13 4 0 5 6 12 13 15 6 3 -4 3 -23 1
l-35 -5 33 18 c30 16 32 20 18 32 -14 11 -16 10 -10 -4 4 -10 1 -16 -7 -16 -7
0 -9 3 -6 6 3 4 2 15 -3 25 -8 15 -7 17 9 14 15 -3 18 0 14 12 -5 12 -3 14 8
8 9 -5 7 -1 -3 10 -16 17 -16 19 0 32 9 8 11 12 5 8 -7 -3 -13 -2 -13 4 0 5 6
12 13 15 6 3 -4 3 -23 1 l-35 -5 33 18 c30 16 32 20 18 32 -14 11 -16 10 -10
-4 4 -10 1 -16 -7 -16 -7 0 -9 3 -6 6 3 4 2 15 -3 25 -8 15 -7 17 9 14 15 -3
18 0 14 12 -5 12 -3 14 8 8 9 -5 7 -1 -3 10 -16 17 -16 19 0 32 9 8 11 12 5 8
-7 -3 -13 -2 -13 4 0 5 6 12 13 15 6 3 -4 3 -23 1 l-35 -5 33 18 c30 16 32 20
18 32 -14 11 -16 10 -10 -4 4 -10 1 -16 -7 -16 -7 0 -9 3 -6 6 3 4 2 15 -3 25
-8 15 -7 17 9 14 15 -3 18 0 14 12 -5 12 -3 14 8 8 9 -5 7 -1 -3 10 -16 17
-16 19 0 32 9 8 11 12 5 8 -7 -3 -13 -2 -13 4 0 5 6 12 13 15 6 3 -4 3 -23 1
l-35 -5 33 18 c30 16 32 20 18 32 -14 11 -16 10 -10 -4 4 -10 1 -16 -7 -16 -7
0 -9 3 -6 6 3 4 2 15 -3 25 -8 15 -7 17 9 14 15 -3 18 0 14 12 -5 12 -3 14 8
8 9 -5 7 -1 -3 10 -16 17 -16 19 0 32 9 8 11 12 5 8 -7 -3 -13 -2 -13 4 0 5 6
12 13 15 6 3 -4 3 -23 1 l-35 -5 33 18 c30 16 32 20 18 32 -14 11 -16 10 -10
-4 4 -10 1 -16 -7 -16 -7 0 -9 3 -6 6 3 4 2 15 -3 25 -8 15 -7 17 9 14 15 -3
18 0 14 12 -5 12 -3 14 8 8 9 -5 7 -1 -3 10 -16 17 -16 19 0 32 9 8 11 12 5 8
-7 -3 -13 -2 -13 4 0 5 6 12 13 15 6 3 -4 3 -23 1 l-35 -5 33 18 c30 16 32 20
18 32 -14 11 -16 10 -10 -4 4 -10 1 -16 -7 -16 -7 0 -9 3 -6 6 3 4 2 15 -3 25
-8 15 -7 17 9 14 15 -3 18 0 14 12 -5 12 -3 14 8 8 9 -5 7 -1 -3 10 -16 17
-16 19 0 32 9 8 11 12 5 8 -7 -3 -13 -2 -13 4 0 5 6 12 13 15 6 3 -4 3 -23 1
l-35 -5 33 18 c30 16 32 20 18 32 -14 11 -16 10 -10 -4 4 -10 1 -16 -7 -16 -7
0 -9 3 -6 6 3 4 2 15 -3 25 -8 15 -7 17 8 14 27 -5 21 39 -9 71 -12 13 -18 24
-13 24 5 0 15 4 23 9 12 8 12 12 2 25 -10 12 -10 19 2 37 16 22 12 54 -4 43
-16 -9 -10 6 11 28 11 12 20 26 20 31 0 5 -8 -1 -18 -13 -17 -21 -19 -21 -25
-6 -4 9 -3 14 2 11 14 -8 25 15 13 27 -6 6 -8 17 -5 26 5 11 3 13 -7 7 -10 -6
-11 -4 -4 6 8 14 13 81 5 73 -2 -2 -12 2 -20 10 -10 9 -22 12 -30 7z m39 -33
c0 -5 -7 -3 -15 6 -8 8 -15 18 -15 22 0 3 7 1 15 -6 8 -7 15 -17 15 -22z m-80
-54 c0 -8 -19 -13 -24 -6 -3 5 1 9 9 9 8 0 15 -2 15 -3z m110 -138 c0 -3 -4
-8 -10 -11 -5 -3 -10 -1 -10 4 0 6 5 11 10 11 6 0 10 -2 10 -4z m-2199 -39
c-10 -9 -11 -8 -5 6 3 10 9 15 12 12 3 -3 0 -11 -7 -18z m1857 -33 c-1 -5 -9
-9 -16 -10 -10 -2 -11 1 -1 12 12 14 24 13 17 -2z m324 -74 c10 -10 14 -22 9
-24 -4 -3 -13 6 -19 19 -14 30 -12 31 10 5z m-2057 0 c-3 -5 -12 -10 -18 -10
-7 0 -6 4 3 10 19 12 23 12 15 0z m50 -20 c3 -5 1 -10 -4 -10 -6 0 -11 5 -11
10 0 6 2 10 4 10 3 0 8 -4 11 -10z m-211 -25 c-4 -8 -10 -15 -15 -15 -4 0 -6
7 -3 15 4 8 10 15 15 15 4 0 6 -7 3 -15z m-8 -53 c-17 -16 -18 -16 -5 5 7 12
15 20 18 17 3 -2 -3 -12 -13 -22z m1756 11 c-10 -4 -10 -8 -1 -19 10 -12 9
-13 -5 -8 -24 9 -18 35 8 33 6 0 5 -3 -2 -6z m-41 -51 c-7 -2 -18 1 -23 6 -8
8 -4 9 13 5 13 -4 18 -8 10 -11z m511 -1 c-11 -7 -10 -11 2 -24 9 -9 12 -18 8
-21 -11 -6 -33 39 -25 48 4 3 11 6 17 6 6 0 5 -4 -2 -9z m-2209 -145 c6 -15
-17 -16 -30 -1 -4 4 -2 5 5 1 6 -4 12 -2 12 3 0 15 7 14 13 -3z m1515 -27
c-10 -6 -15 -16 -12 -27 5 -14 4 -15 -5 -2 -7 11 -6 19 6 32 9 10 19 16 22 12
3 -3 -2 -10 -11 -15z m694 12 c-11 -7 -10 -11 2 -24 9 -9 12 -18 8 -21 -11 -6
-33 39 -25 48 4 3 11 6 17 6 6 0 5 -4 -2 -9z m-2217 -30 c-3 -6 -11 -11 -16
-11 -5 0 -4 6 3 14 14 16 24 13 13 -3z m489 -40 c-2 -3 -12 3 -22 13 -16 17
-16 18 5 5 12 -7 20 -15 17 -18z m46 4 c0 -8 -4 -15 -10 -15 -5 0 -7 7 -4 15
4 8 8 15 10 15 2 0 4 -7 4 -15z m910 0 c11 -13 10 -14 -4 -9 -9 3 -16 10 -16
15 0 13 6 11 20 -6z m772 -94 c-11 -7 -10 -11 2 -24 9 -9 12 -18 8 -21 -11 -6
-33 39 -25 48 4 3 11 6 17 6 6 0 5 -4 -2 -9z m-937 -81 c3 -5 1 -10 -4 -10 -6
0 -11 5 -11 10 0 6 2 10 4 10 3 0 8 -4 11 -10z m6 -37 c13 -16 12 -17 -3 -4
-17 13 -22 21 -14 21 2 0 10 -8 17 -17z m-544 -15 c-3 -8 -6 -5 -6 6 -1 11 2
17 5 13 3 -3 4 -12 1 -19z m477 -10 c-3 -4 -9 -8 -15 -8 -5 0 -9 4 -9 8 0 5 7
9 15 9 8 0 12 -4 9 -9z m998 -17 c-11 -7 -10 -11 2 -24 9 -9 12 -18 8 -21 -11
-6 -33 39 -25 48 4 3 11 6 17 6 6 0 5 -4 -2 -9z m-1051 -78 c-12 -20 -14 -14
-5 12 4 9 9 14 11 11 3 -2 0 -13 -6 -23z m-43 -2 c11 -7 10 -9 -3 -14 -9 -4
-14 -3 -10 2 3 5 -1 12 -7 14 -7 3 -8 6 -3 6 6 0 16 -3 23 -8z m-265 -16 c-3
-9 -8 -14 -10 -11 -3 3 -2 9 2 15 9 16 15 13 8 -4z m1359 -64 c-11 -7 -10 -11
2 -24 9 -9 12 -18 8 -21 -11 -6 -33 39 -25 48 4 3 11 6 17 6 6 0 5 -4 -2 -9z
m0 -160 c-11 -7 -10 -11 2 -24 9 -9 12 -18 8 -21 -11 -6 -33 39 -25 48 4 3 11
6 17 6 6 0 5 -4 -2 -9z m-2209 -145 c6 -15 -17 -16 -30 -1 -4 4 -2 5 5 1 6 -4
12 -2 12 3 0 15 7 14 13 -3z m2209 -15 c-11 -7 -10 -11 2 -24 9 -9 12 -18 8
-21 -11 -6 -33 39 -25 48 4 3 11 6 17 6 6 0 5 -4 -2 -9z m-2217 -30 c-3 -6
-11 -11 -16 -11 -5 0 -4 6 3 14 14 16 24 13 13 -3z m8 -115 c6 -15 -17 -16
-30 -1 -4 4 -2 5 5 1 6 -4 12 -2 12 3 0 15 7 14 13 -3z m2209 -15 c-11 -7 -10
-11 2 -24 9 -9 12 -18 8 -21 -11 -6 -33 39 -25 48 4 3 11 6 17 6 6 0 5 -4 -2
-9z m-2217 -30 c-3 -6 -11 -11 -16 -11 -5 0 -4 6 3 14 14 16 24 13 13 -3z
m2217 -130 c-11 -7 -10 -11 2 -24 9 -9 12 -18 8 -21 -11 -6 -33 39 -25 48 4 3
11 6 17 6 6 0 5 -4 -2 -9z m-2217 -231 c3 -6 -1 -7 -9 -4 -18 7 -21 14 -7 14
6 0 13 -4 16 -10z m2224 -56 c-6 -8 -17 -14 -23 -14 -6 0 -3 5 7 11 9 6 14 15
11 21 -4 7 -2 8 5 4 9 -6 9 -11 0 -22z m-2209 -8 c0 -2 -8 -10 -17 -17 -16
-13 -17 -12 -4 4 13 16 21 21 21 13z m81 -43 c-12 -20 -14 -14 -5 12 4 9 9 14
11 11 3 -2 0 -13 -6 -23z m59 10 c0 -3 -7 -2 -16 1 -12 5 -15 2 -10 -11 6 -14
4 -15 -5 -6 -14 14 -3 34 16 26 8 -3 15 -7 15 -10z m113 -3 c-3 -12 -8 -19
-11 -16 -5 6 5 36 12 36 2 0 2 -9 -1 -20z m86 -16 c2 -2 -6 -2 -18 -1 -11 1
-21 5 -21 10 0 4 -4 6 -8 3 -5 -3 -9 1 -9 9 0 12 14 7 56 -21z m222 9 c-12
-20 -14 -14 -5 12 4 9 9 14 11 11 3 -2 0 -13 -6 -23z m59 10 c0 -3 -7 -2 -16
1 -12 5 -15 2 -10 -11 6 -14 4 -15 -5 -6 -14 14 -3 34 16 26 8 -3 15 -7 15
-10z m421 -10 c-12 -20 -14 -14 -5 12 4 9 9 14 11 11 3 -2 0 -13 -6 -23z m59
10 c0 -3 -7 -2 -16 1 -12 5 -15 2 -10 -11 6 -14 4 -15 -5 -6 -14 14 -3 34 16
26 8 -3 15 -7 15 -10z m113 -3 c-3 -12 -8 -19 -11 -16 -5 6 5 36 12 36 2 0 2
-9 -1 -20z m86 -16 c2 -2 -6 -2 -18 -1 -11 1 -21 5 -21 10 0 4 -4 6 -8 3 -5
-3 -9 1 -9 9 0 12 14 7 56 -21z m222 9 c-12 -20 -14 -14 -5 12 4 9 9 14 11 11
3 -2 0 -13 -6 -23z m59 10 c0 -3 -7 -2 -16 1 -12 5 -15 2 -10 -11 6 -14 4 -15
-5 -6 -14 14 -3 34 16 26 8 -3 15 -7 15 -10z m421 -10 c-12 -20 -14 -14 -5 12
4 9 9 14 11 11 3 -2 0 -13 -6 -23z m59 10 c0 -3 -7 -2 -16 1 -12 5 -15 2 -10
-11 6 -14 4 -15 -5 -6 -14 14 -3 34 16 26 8 -3 15 -7 15 -10z m-1892 -7 c-7
-8 -15 -12 -17 -11 -5 6 10 25 20 25 5 0 4 -6 -3 -14z m480 0 c-7 -8 -15 -12
-17 -11 -5 6 10 25 20 25 5 0 4 -6 -3 -14z m91 -12 c2 -2 -6 -2 -18 -1 -11 1
-21 5 -21 10 0 5 -7 4 -15 -3 -9 -8 -15 -8 -15 -2 0 21 42 19 69 -4z m141 11
c24 -13 24 -14 3 -12 -13 1 -23 5 -23 9 0 4 -5 8 -11 8 -5 0 -8 -4 -5 -8 2 -4
-11 -7 -29 -7 -18 0 -31 4 -28 8 3 5 14 7 24 4 10 -3 22 -1 25 4 7 12 14 11
44 -6z m248 1 c-7 -8 -15 -12 -17 -11 -5 6 10 25 20 25 5 0 4 -6 -3 -14z m480
0 c-7 -8 -15 -12 -17 -11 -5 6 10 25 20 25 5 0 4 -6 -3 -14z m91 -12 c2 -2 -6
-2 -18 -1 -11 1 -21 5 -21 10 0 5 -7 4 -15 -3 -9 -8 -15 -8 -15 -2 0 21 42 19
69 -4z m141 11 c24 -13 24 -14 3 -12 -13 1 -23 5 -23 9 0 4 -5 8 -11 8 -5 0
-8 -4 -5 -8 2 -4 -11 -7 -29 -7 -18 0 -31 4 -28 8 3 5 14 7 24 4 10 -3 22 -1
25 4 7 12 14 11 44 -6z m248 1 c-7 -8 -15 -12 -17 -11 -5 6 10 25 20 25 5 0 4
-6 -3 -14z"/>
<path d="M2492 2365 c4 -4 3 -14 -3 -22 -7 -8 -8 -13 -1 -13 15 0 23 28 9 36
-7 4 -9 4 -5 -1z"/>
<path d="M2489 2318 c-7 -29 -5 -36 7 -31 16 6 18 19 4 28 -5 3 -10 5 -11 3z"/>
<path d="M2491 2266 c-9 -10 -9 -16 -1 -21 6 -4 14 -4 17 -1 4 3 1 6 -7 6 -10
0 -10 3 0 15 7 8 10 15 7 15 -2 0 -10 -6 -16 -14z"/>
<path d="M2288 2258 c7 -9 20 -15 28 -14 17 3 20 19 5 24 -6 2 -11 -2 -11 -8
0 -9 -5 -9 -17 1 -16 13 -17 12 -5 -3z"/>
<path d="M2174 2135 c-4 -8 -10 -12 -15 -9 -5 3 -6 -3 -2 -12 6 -16 7 -15 20
2 13 18 17 34 8 34 -3 0 -8 -7 -11 -15z"/>
<path d="M330 2122 c0 -5 6 -15 13 -23 6 -8 11 -12 10 -10 -2 2 2 10 9 18 6 7
8 16 4 20 -3 3 -6 1 -6 -5 0 -7 -5 -12 -11 -12 -5 0 -7 5 -4 10 3 6 1 10 -4
10 -6 0 -11 -4 -11 -8z"/>
<path d="M2485 2100 c-3 -5 -1 -10 4 -10 6 0 11 5 11 10 0 6 -2 10 -4 10 -3 0
-8 -4 -11 -10z"/>
<path d="M2470 2038 c0 -4 5 -10 10 -13 6 -3 10 -1 10 5 0 6 5 8 10 5 6 -3 10
-2 10 4 0 5 -9 9 -20 8 -11 -1 -20 -5 -20 -9z"/>
<path d="M210 2006 c0 -2 7 -7 16 -10 8 -3 12 -2 9 4 -6 10 -25 14 -25 6z"/>
<path d="M521 1901 c-7 -5 -9 -11 -5 -14 5 -3 15 1 22 9 14 16 5 18 -17 5z"/>
<path d="M220 1859 c0 -5 5 -7 10 -4 6 3 10 8 10 11 0 2 -4 4 -10 4 -5 0 -10
-5 -10 -11z"/>
<path d="M1745 1719 c-4 -6 -5 -12 -2 -15 2 -3 7 2 10 11 7 17 1 20 -8 4z"/>
<path d="M909 1528 c8 -22 24 -26 29 -6 2 9 0 8 -8 -2 -10 -13 -11 -12 -7 6 2
12 -1 21 -8 21 -9 0 -11 -7 -6 -19z"/>
<path d="M1553 1523 c4 -3 -1 -12 -11 -19 -9 -7 -12 -14 -6 -14 6 0 19 9 29
20 17 19 17 20 0 20 -10 0 -15 -3 -12 -7z"/>
<path d="M1026 1407 c3 -10 9 -15 12 -12 3 3 0 11 -7 18 -10 9 -11 8 -5 -6z"/>
<path d="M226 1355 c4 -8 7 -15 9 -15 2 0 5 7 9 15 3 9 0 15 -9 15 -9 0 -12
-6 -9 -15z"/>
<path d="M220 1299 c0 -5 5 -7 10 -4 6 3 10 8 10 11 0 2 -4 4 -10 4 -5 0 -10
-5 -10 -11z"/>
<path d="M1148 1297 c7 -8 9 -17 5 -20 -3 -4 -1 -7 5 -7 18 0 14 27 -4 34 -13
5 -14 4 -6 -7z"/>
<path d="M210 1275 c0 -2 6 -8 13 -14 10 -8 14 -7 14 2 0 8 -6 14 -14 14 -7 0
-13 -1 -13 -2z"/>
<path d="M1270 1235 c0 -7 30 -13 34 -7 3 4 -4 9 -15 9 -10 1 -19 0 -19 -2z"/>
<path d="M1192 1198 c2 -6 12 -12 22 -14 14 -2 15 0 5 12 -14 17 -32 19 -27 2z"/>
<path d="M1226 251 c-4 -6 -5 -15 -2 -20 4 -5 0 -12 -6 -14 -8 -4 -9 -6 -2 -6
19 -2 39 28 27 40 -8 8 -13 7 -17 0z"/>
<path d="M2186 251 c-4 -6 -5 -15 -2 -20 4 -5 0 -12 -6 -14 -8 -4 -9 -6 -2 -6
19 -2 39 28 27 40 -8 8 -13 7 -17 0z"/>
<path d="M2463 245 c0 -7 6 -11 14 -8 7 3 13 6 13 8 0 2 -6 5 -13 8 -8 3 -14
-1 -14 -8z"/>
<path d="M304 232 c-10 -15 -8 -18 10 -19 11 -1 16 1 9 4 -7 2 -9 11 -6 19 7
20 0 18 -13 -4z"/>
<path d="M784 231 c4 -5 0 -11 -6 -14 -7 -3 -3 -4 9 -4 17 1 19 4 11 14 -12
15 -22 18 -14 4z"/>
<path d="M1744 231 c4 -5 0 -11 -6 -14 -7 -3 -3 -4 9 -4 17 1 19 4 11 14 -12
15 -22 18 -14 4z"/>
<path d="M2415 230 c-3 -5 -1 -10 4 -10 6 0 11 5 11 10 0 6 -2 10 -4 10 -3 0
-8 -4 -11 -10z"/>
</g>
</svg>
